<svg width="16" height="16" viewBox="0 0 16 16" fill="none" xmlns="http://www.w3.org/2000/svg">
<g clip-path="url(#clip0_118_60)">
<path d="M7.95135 6.875C7.95135 6.52981 7.67154 6.25 7.32635 6.25H3.9826C3.63742 6.25 3.3576 6.52981 3.3576 6.875C3.3576 7.22019 3.63742 7.5 3.9826 7.5H7.32635C7.67154 7.5 7.95135 7.22019 7.95135 6.875Z" fill="#ECD636"/>
<path d="M3.9826 8.75C3.63742 8.75 3.3576 9.02981 3.3576 9.375C3.3576 9.72019 3.63742 10 3.9826 10H5.32635C5.67154 10 5.95135 9.72019 5.95135 9.375C5.95135 9.02981 5.67154 8.75 5.32635 8.75H3.9826Z" fill="#ECD636"/>
<path d="M6.76387 14.75H3.36108C2.67183 14.75 2.11108 14.1892 2.11108 13.5V2.5C2.11108 1.81075 2.67183 1.25 3.36108 1.25H11.0451C11.7344 1.25 12.2951 1.81075 12.2951 2.5V6C12.2951 6.34519 12.5749 6.625 12.9201 6.625C13.2653 6.625 13.5451 6.34519 13.5451 6V2.5C13.5451 1.1215 12.4236 0 11.0451 0H3.36108C1.98258 0 0.861084 1.1215 0.861084 2.5V13.5C0.861084 14.8785 1.98258 16 3.36108 16H6.76383C7.10902 16 7.38883 15.7202 7.38883 15.375C7.38883 15.0298 7.10902 14.75 6.76387 14.75Z" fill="#ECD636"/>
<path d="M14.7688 9.05012L11.7011 7.67937C11.5995 7.63394 11.4922 7.61787 11.3889 7.6275C11.2855 7.6179 11.1782 7.634 11.0766 7.67937L8.00889 9.05012C7.78379 9.15072 7.63885 9.37419 7.63885 9.62075V12.0008C7.63885 12.9783 8.02504 13.976 8.69842 14.7382C9.41739 15.5519 10.3579 16 11.3467 16H11.431C12.4198 16 13.3603 15.5519 14.0793 14.7382C14.7526 13.976 15.1388 12.9783 15.1388 12.0008V9.62075C15.1388 9.37422 14.9939 9.15072 14.7688 9.05012ZM13.8888 10.026V12.0008C13.8888 13.2986 12.8377 14.75 11.431 14.75H11.3466C9.93995 14.75 8.88882 13.2985 8.88882 12.0008V10.026L11.3888 8.90897L13.8888 10.026H13.8888Z" fill="#ECD636"/>
<path d="M11.0451 4.375C11.0451 4.02981 10.7653 3.75 10.4201 3.75H3.9826C3.63742 3.75 3.3576 4.02981 3.3576 4.375C3.3576 4.72019 3.63742 5 3.9826 5H10.4201C10.7653 5 11.0451 4.72019 11.0451 4.375Z" fill="#ECD636"/>
</g>
<defs>
<clipPath id="clip0_118_60">
<rect width="16" height="16" fill="white"/>
</clipPath>
</defs>
</svg>
