<svg width="20" height="20" viewBox="0 0 20 20" fill="none" xmlns="http://www.w3.org/2000/svg">
<g clip-path="url(#clip0_128_438)">
<path d="M15.0194 1.34215C13.4874 0.447978 11.8141 0.000976562 10 0.000976562C8.18561 0.000976562 6.51239 0.447978 4.98035 1.34215C3.44831 2.23636 2.23518 3.44949 1.34118 4.98133C0.447002 6.51354 0 8.18676 0 10.001C0 12.0235 0.550982 13.8595 1.65357 15.5086C2.75594 17.1582 4.20114 18.3776 5.98952 19.1674C5.95464 18.2386 6.01111 17.4705 6.15881 16.8629L7.4478 11.4202C7.23076 10.9949 7.12232 10.4655 7.12232 9.83166C7.12232 9.09385 7.30894 8.47736 7.68218 7.98281C8.05521 7.48784 8.51109 7.24034 9.04936 7.24034C9.48324 7.24034 9.81759 7.38341 10.052 7.67021C10.2864 7.95656 10.4037 8.31692 10.4037 8.75083C10.4037 9.02009 10.3536 9.34788 10.254 9.734C10.1541 10.1203 10.0239 10.5673 9.86345 11.0752C9.70284 11.5829 9.58788 11.9886 9.51833 12.2926C9.3966 12.8219 9.49657 13.2755 9.8178 13.6532C10.1388 14.0308 10.5643 14.2195 11.0939 14.2195C12.0228 14.2195 12.7845 13.7032 13.3792 12.6702C13.9737 11.6371 14.271 10.3828 14.271 8.90696C14.271 7.76994 13.9044 6.84527 13.1708 6.1335C12.4373 5.42191 11.4149 5.0658 10.1044 5.0658C8.63724 5.0658 7.45012 5.5369 6.54323 6.47842C5.63614 7.42039 5.18258 8.54684 5.18258 9.85718C5.18258 10.6385 5.40408 11.2941 5.84662 11.8236C5.99415 11.9972 6.04191 12.1837 5.9899 12.3832C5.97236 12.4354 5.93772 12.5655 5.88571 12.7737C5.83374 12.9819 5.79886 13.1168 5.78153 13.1774C5.71198 13.4553 5.54715 13.5422 5.28656 13.4378C4.61809 13.16 4.11021 12.6784 3.76318 11.9926C3.41595 11.3069 3.24242 10.5127 3.24242 9.60989C3.24242 9.02827 3.33562 8.44662 3.52224 7.86501C3.70886 7.2834 3.99946 6.72144 4.3947 6.17867C4.78948 5.63657 5.2627 5.15662 5.81409 4.74004C6.36528 4.32326 7.03589 3.98935 7.82588 3.73719C8.61569 3.48568 9.46656 3.35974 10.378 3.35974C11.6106 3.35974 12.7175 3.63321 13.6983 4.17994C14.6791 4.72692 15.4279 5.43451 15.9445 6.30248C16.4608 7.17047 16.7192 8.09911 16.7192 9.08905C16.7192 10.3911 16.4934 11.5631 16.0422 12.6048C15.5907 13.6465 14.9527 14.4646 14.128 15.0592C13.3031 15.6537 12.3655 15.951 11.3154 15.951C10.7858 15.951 10.291 15.8274 9.83092 15.5799C9.37059 15.3324 9.05382 15.0395 8.88029 14.7009C8.48971 16.2371 8.25533 17.1534 8.17715 17.4482C8.01208 18.0647 7.67351 18.7762 7.16142 19.5836C8.09026 19.8614 9.03645 20.0001 10 20.0001C11.8142 20.0001 13.4874 19.5532 15.0194 18.6592C16.5515 17.765 17.7646 16.5519 18.6588 15.0196C19.5528 13.4875 20 11.8145 20 10.0001C20 8.18572 19.5528 6.51275 18.6588 4.9805C17.7648 3.44949 16.5515 2.23636 15.0194 1.34215Z" fill="white"/>
</g>
<defs>
<clipPath id="clip0_128_438">
<rect width="20" height="20" fill="white"/>
</clipPath>
</defs>
</svg>
