<svg width="26" height="26" viewBox="0 0 26 26" fill="none" xmlns="http://www.w3.org/2000/svg">
<rect width="26" height="26" rx="13" fill="#ECD636"/>
<g clip-path="url(#clip0_6214_2)">
<path d="M18.6734 15.8068L16.9987 14.1322C16.4006 13.5341 15.3839 13.7733 15.1447 14.5508C14.9652 15.0891 14.3672 15.3882 13.8289 15.2685C12.6327 14.9695 11.0179 13.4145 10.7188 12.1585C10.5394 11.6202 10.8983 11.0221 11.4365 10.8427C12.2141 10.6035 12.4533 9.58671 11.8552 8.98863L10.1806 7.31399C9.7021 6.89534 8.9844 6.89534 8.56574 7.31399L7.42938 8.45035C6.29302 9.64652 7.549 12.8164 10.36 15.6274C13.171 18.4384 16.3408 19.7542 17.537 18.558L18.6734 17.4216C19.092 16.9431 19.092 16.2254 18.6734 15.8068Z" fill="#0A2B86"/>
</g>
<defs>
<clipPath id="clip0_6214_2">
<rect width="12" height="12" fill="white" transform="translate(7 7)"/>
</clipPath>
</defs>
</svg>
