<svg width="16" height="16" viewBox="0 0 16 16" fill="none" xmlns="http://www.w3.org/2000/svg">
<path d="M3.78125 16H12.2188C13.5111 16 14.5625 14.9486 14.5625 13.6562V2.34375C14.5625 1.05139 13.5111 0 12.2188 0C9.49097 0 6.47925 0 3.78125 0C2.48889 0 1.4375 1.05139 1.4375 2.34375V13.6562C1.4375 14.9486 2.48889 16 3.78125 16ZM13.625 2.34375V13.6562C13.625 14.4316 12.9941 15.0625 12.2188 15.0625H12.2175C12.5125 14.6705 12.6875 14.1835 12.6875 13.6562V2.34375C12.6875 1.81653 12.5125 1.32947 12.2175 0.9375H12.2188C12.9941 0.9375 13.625 1.56836 13.625 2.34375ZM2.375 2.34375C2.375 1.56836 3.00586 0.9375 3.78125 0.9375H10.3438C11.1191 0.9375 11.75 1.56836 11.75 2.34375V13.6562C11.75 14.4316 11.1191 15.0625 10.3438 15.0625C10.0477 15.0625 5.5752 15.0625 3.78125 15.0625C3.00586 15.0625 2.375 14.4316 2.375 13.6562V2.34375Z" fill="#ECD636"/>
<path d="M7.0625 10.3125C9.13025 10.3125 10.8125 8.63025 10.8125 6.5625C10.8125 4.49475 9.13025 2.8125 7.0625 2.8125C4.99475 2.8125 3.3125 4.49475 3.3125 6.5625C3.3125 8.63025 4.99475 10.3125 7.0625 10.3125ZM4.28931 7.03125H5.20129C5.24255 7.74658 5.37781 8.41528 5.59338 8.95984C4.91504 8.5426 4.42651 7.84583 4.28931 7.03125ZM7.0625 3.75C7.3623 3.75 7.88953 4.62854 7.98499 6.09375H6.14001C6.23547 4.62854 6.7627 3.75 7.0625 3.75ZM7.98499 7.03125C7.88953 8.49646 7.3623 9.375 7.0625 9.375C6.7627 9.375 6.23547 8.49646 6.14001 7.03125H7.98499ZM8.53162 8.95984C8.74719 8.41528 8.88245 7.74622 8.92371 7.03088H9.83569C9.69849 7.84558 9.20996 8.5426 8.53162 8.95984ZM9.83569 6.09375H8.92371C8.88245 5.37842 8.74719 4.70972 8.53162 4.16516C9.20996 4.5824 9.69849 5.27917 9.83569 6.09375ZM5.59338 4.16516C5.37781 4.70972 5.24255 5.37842 5.20129 6.09375H4.28931C4.42651 5.27917 4.91504 4.5824 5.59338 4.16516Z" fill="#ECD636"/>
<path d="M9.40625 11.3125H4.71875C4.45984 11.3125 4.25 11.5223 4.25 11.7812C4.25 12.0402 4.45984 12.25 4.71875 12.25H9.40625C9.66516 12.25 9.875 12.0402 9.875 11.7812C9.875 11.5223 9.66516 11.3125 9.40625 11.3125Z" fill="#ECD636"/>
<path d="M8.46875 13.1875H5.65625C5.39734 13.1875 5.1875 13.3973 5.1875 13.6562C5.1875 13.9152 5.39734 14.125 5.65625 14.125H8.46875C8.72766 14.125 8.9375 13.9152 8.9375 13.6562C8.9375 13.3973 8.72766 13.1875 8.46875 13.1875Z" fill="#ECD636"/>
</svg>
