<svg width="20" height="20" viewBox="0 0 20 20" fill="none" xmlns="http://www.w3.org/2000/svg">
<g clip-path="url(#clip0_4_23)">
<path d="M15.0194 1.34221C13.4874 0.448039 11.8141 0.0010376 10 0.0010376C8.18561 0.0010376 6.51239 0.448039 4.98035 1.34221C3.44831 2.23642 2.23518 3.44955 1.34118 4.98139C0.447002 6.5136 0 8.18682 0 10.001C0 12.0236 0.550982 13.8595 1.65357 15.5086C2.75594 17.1582 4.20114 18.3777 5.98952 19.1674C5.95464 18.2386 6.01111 17.4706 6.15881 16.8629L7.4478 11.4202C7.23076 10.995 7.12232 10.4655 7.12232 9.83172C7.12232 9.09391 7.30894 8.47742 7.68218 7.98287C8.05521 7.4879 8.51109 7.2404 9.04936 7.2404C9.48324 7.2404 9.81759 7.38347 10.052 7.67027C10.2864 7.95662 10.4037 8.31698 10.4037 8.75089C10.4037 9.02015 10.3536 9.34794 10.254 9.73406C10.1541 10.1204 10.0239 10.5674 9.86345 11.0752C9.70284 11.5829 9.58788 11.9887 9.51833 12.2926C9.3966 12.822 9.49657 13.2755 9.8178 13.6532C10.1388 14.0309 10.5643 14.2196 11.0939 14.2196C12.0228 14.2196 12.7845 13.7033 13.3792 12.6702C13.9737 11.6372 14.271 10.3829 14.271 8.90702C14.271 7.77 13.9044 6.84533 13.1708 6.13356C12.4373 5.42197 11.4149 5.06586 10.1044 5.06586C8.63724 5.06586 7.45012 5.53696 6.54323 6.47848C5.63614 7.42045 5.18258 8.5469 5.18258 9.85724C5.18258 10.6386 5.40408 11.2941 5.84662 11.8236C5.99415 11.9973 6.04191 12.1837 5.9899 12.3832C5.97236 12.4354 5.93772 12.5656 5.88571 12.7738C5.83374 12.982 5.79886 13.1168 5.78153 13.1774C5.71198 13.4554 5.54715 13.5422 5.28656 13.4378C4.61809 13.1601 4.11021 12.6785 3.76318 11.9926C3.41595 11.307 3.24242 10.5128 3.24242 9.60995C3.24242 9.02833 3.33562 8.44669 3.52224 7.86507C3.70886 7.28346 3.99946 6.7215 4.3947 6.17873C4.78948 5.63663 5.2627 5.15668 5.81409 4.7401C6.36528 4.32332 7.03589 3.98941 7.82588 3.73725C8.61569 3.48574 9.46656 3.3598 10.378 3.3598C11.6106 3.3598 12.7175 3.63327 13.6983 4.18C14.6791 4.72698 15.4279 5.43457 15.9445 6.30254C16.4608 7.17054 16.7192 8.09918 16.7192 9.08911C16.7192 10.3912 16.4934 11.5631 16.0422 12.6049C15.5907 13.6466 14.9527 14.4647 14.128 15.0592C13.3031 15.6537 12.3655 15.9511 11.3154 15.9511C10.7858 15.9511 10.291 15.8275 9.83092 15.5799C9.37059 15.3325 9.05382 15.0395 8.88029 14.7009C8.48971 16.2372 8.25533 17.1534 8.17715 17.4483C8.01208 18.0647 7.67351 18.7763 7.16142 19.5837C8.09026 19.8614 9.03645 20.0002 10 20.0002C11.8142 20.0002 13.4874 19.5532 15.0194 18.6593C16.5515 17.765 17.7646 16.5519 18.6588 15.0197C19.5528 13.4876 20 11.8146 20 10.0002C20 8.18578 19.5528 6.51281 18.6588 4.98056C17.7648 3.44955 16.5515 2.23642 15.0194 1.34221Z" fill="#0A2B86"/>
</g>
<defs>
<clipPath id="clip0_4_23">
<rect width="20" height="20" fill="white"/>
</clipPath>
</defs>
</svg>
