<svg width="20" height="20" viewBox="0 0 20 20" fill="none" xmlns="http://www.w3.org/2000/svg">
<g clip-path="url(#clip0_4_19)">
<path d="M11.9141 10C11.9141 8.94287 11.0571 8.08594 10 8.08594C8.94287 8.08594 8.08594 8.94287 8.08594 10C8.08594 11.0571 8.94287 11.9141 10 11.9141C11.0571 11.9141 11.9141 11.0571 11.9141 10Z" fill="#0A2B86"/>
<path d="M14.4767 13.3866C14.3847 13.6359 14.2379 13.8616 14.0472 14.0468C13.862 14.2375 13.6364 14.3843 13.387 14.4763C13.1846 14.5549 12.8807 14.6485 12.3208 14.674C11.7152 14.7016 11.5336 14.7075 10.0004 14.7075C8.46707 14.7075 8.28549 14.7017 7.68002 14.6741C7.12018 14.6485 6.81607 14.5549 6.61389 14.4763C6.36441 14.3843 6.13873 14.2375 5.95364 14.0468C5.76291 13.8616 5.61612 13.636 5.52396 13.3866C5.44537 13.1842 5.35184 12.8801 5.32635 12.3203C5.29874 11.7148 5.29279 11.5332 5.29279 9.99988C5.29279 8.46667 5.29874 8.2851 5.32635 7.67947C5.35184 7.11963 5.44537 6.81567 5.52396 6.61334C5.61612 6.36386 5.76276 6.13834 5.95349 5.95309C6.13873 5.76236 6.36426 5.61557 6.61374 5.52356C6.81607 5.44482 7.12018 5.35129 7.68002 5.32581C8.28549 5.29819 8.46692 5.29239 10.0003 5.29239C11.5338 5.29239 11.7154 5.29819 12.3207 5.32581C12.8805 5.35129 13.1846 5.44482 13.387 5.52356C13.8878 5.71674 14.2836 6.11255 14.4767 6.61334C14.5553 6.81567 14.6489 7.11963 14.6745 7.67947C14.7021 8.2851 14.7079 8.46667 14.7079 9.99988C14.7079 11.5332 14.7021 11.7148 14.6745 12.3203C14.649 12.8801 14.5555 13.1842 14.4767 13.3866ZM10.0004 7.05142C8.37186 7.05142 7.05167 8.37146 7.05167 10C7.05167 11.6286 8.37186 12.9486 10.0004 12.9486C11.6288 12.9486 12.949 11.6286 12.949 10C12.949 8.37146 11.6288 7.05142 10.0004 7.05142ZM13.0656 12.3761C12.6851 12.3761 12.3765 12.6847 12.3765 13.0652C12.3765 13.4458 12.6851 13.7543 13.0656 13.7543C13.4462 13.7543 13.7547 13.4458 13.7547 13.0652C13.7545 12.6847 13.4462 12.3761 13.0656 12.3761Z" fill="#0A2B86"/>
<path d="M10 20C4.478 20 0 15.522 0 10C0 4.478 4.478 0 10 0C15.522 0 20 4.478 20 10C20 15.522 15.522 20 10 20ZM15.7076 7.6326C15.6798 7.02133 15.5826 6.604 15.4407 6.23871C15.1424 5.46738 14.5326 4.85764 13.7613 4.55933C13.3961 4.41742 12.9787 4.32037 12.3676 4.29245C11.7552 4.26453 11.5596 4.25781 10.0002 4.25781C8.44055 4.25781 8.24509 4.26453 7.6326 4.29245C7.02148 4.32037 6.604 4.41742 6.23886 4.55933C5.85556 4.70352 5.50858 4.9295 5.22171 5.22171C4.92966 5.50842 4.70367 5.85556 4.55948 6.23871C4.41757 6.60385 4.32037 7.02133 4.2926 7.63245C4.26437 8.24493 4.25781 8.44055 4.25781 10C4.25781 11.5594 4.26437 11.7551 4.29245 12.3674C4.32022 12.9787 4.41727 13.396 4.55917 13.7613C4.70337 14.1444 4.9295 14.4916 5.22171 14.7783C5.50842 15.0705 5.85556 15.2965 6.23871 15.4407C6.604 15.5826 7.02133 15.6796 7.6326 15.7076C8.24493 15.7355 8.44055 15.7422 10 15.7422C11.5594 15.7422 11.7551 15.7355 12.3674 15.7074C12.9787 15.6796 13.396 15.5826 13.7613 15.4408C14.1444 15.2966 14.4916 15.0705 14.7784 14.7783C15.0705 14.4914 15.2966 14.1444 15.4407 13.7613C15.5827 13.396 15.6798 12.9787 15.7077 12.3674C15.7356 11.7551 15.7422 11.5594 15.7422 10C15.7422 8.44055 15.7356 8.24493 15.7076 7.6326Z" fill="#0A2B86"/>
</g>
<defs>
<clipPath id="clip0_4_19">
<rect width="20" height="20" fill="white" transform="matrix(1 0 0 -1 0 20)"/>
</clipPath>
</defs>
</svg>
