<svg width="20" height="20" viewBox="0 0 20 20" fill="none" xmlns="http://www.w3.org/2000/svg">
<g clip-path="url(#clip0_4_16)">
<path d="M8.75439 8.12653L12.0073 10L8.75439 11.8735V8.12653Z" fill="#0A2B86"/>
<path d="M10 20C4.478 20 0 15.522 0 10C0 4.478 4.478 0 10 0C15.522 0 20 4.478 20 10C20 15.522 15.522 20 10 20ZM16.2485 9.98978C16.2485 9.98978 16.2485 7.96173 15.9912 6.9838C15.847 6.44852 15.425 6.02646 14.8897 5.88242C13.9117 5.625 10 5.625 10 5.625C10 5.625 6.09848 5.625 5.11032 5.89264C4.57504 6.03668 4.15298 6.45889 4.00879 6.99417C3.75137 7.96173 3.75137 10 3.75137 10C3.75137 10 3.75137 12.0279 4.00879 13.0058C4.15283 13.5411 4.58527 13.9735 5.11032 14.1176C6.08826 14.375 10 14.375 10 14.375C10 14.375 13.9117 14.375 14.8897 14.1074C15.425 13.9633 15.847 13.5411 15.9912 13.0058C16.2589 12.0279 16.2485 9.98978 16.2485 9.98978Z" fill="#0A2B86"/>
</g>
<defs>
<clipPath id="clip0_4_16">
<rect width="20" height="20" fill="white" transform="matrix(1 0 0 -1 0 20)"/>
</clipPath>
</defs>
</svg>
