<svg width="36" height="36" viewBox="0 0 36 36" fill="none" xmlns="http://www.w3.org/2000/svg">
<path d="M26.9957 7.38231C27.0142 7.23427 26.9731 7.08496 26.8815 6.9672C26.7899 6.84944 26.6553 6.77289 26.5073 6.75437L24.85 6.54721L25.3082 2.88231C25.3267 2.73428 25.2856 2.58496 25.194 2.4672C25.1024 2.34944 24.9678 2.27289 24.8198 2.25437L15.8198 1.12937C15.7465 1.12018 15.6721 1.12552 15.6008 1.14509C15.5296 1.16466 15.4629 1.19808 15.4046 1.24344C15.3463 1.2888 15.2975 1.34521 15.2609 1.40944C15.2244 1.47367 15.201 1.54447 15.1918 1.61778L14.7337 5.28269L13.0073 5.06687C12.9339 5.05765 12.8595 5.06297 12.7883 5.08253C12.717 5.10209 12.6503 5.13551 12.592 5.18088C12.5337 5.22624 12.4849 5.28266 12.4484 5.3469C12.4119 5.41115 12.3884 5.48196 12.3793 5.55528L8.85498 33.75H7.3125V34.875H25.3125V33.75H23.6997L26.9957 7.38231ZM14.3523 28.9556C14.53 28.8176 14.7446 28.7353 14.9691 28.7192C15.1936 28.7031 15.4178 28.7539 15.6134 28.8652C15.809 28.9765 15.9672 29.1433 16.068 29.3445C16.1688 29.5457 16.2077 29.7723 16.1798 29.9956L15.7104 33.75H13.4165L13.9211 29.7133C13.9393 29.5647 13.9867 29.4213 14.0607 29.2912C14.1347 29.1611 14.2338 29.0471 14.3523 28.9556ZM17.2956 30.1395C17.3139 29.991 17.3613 29.8476 17.4351 29.7175C17.5089 29.5874 17.6077 29.473 17.7257 29.3811C17.8437 29.2892 17.9787 29.2214 18.1229 29.1817C18.2672 29.1419 18.4178 29.131 18.5663 29.1496C18.7147 29.1682 18.8581 29.2158 18.9881 29.2898C19.1181 29.3638 19.2323 29.4627 19.324 29.5809C19.4158 29.6991 19.4834 29.8342 19.5229 29.9785C19.5624 30.1228 19.573 30.2735 19.5542 30.4219L19.5537 30.4259L19.5537 30.4262L19.1382 33.75H16.8442L17.2956 30.1395ZM20.411 28.9196C20.3721 28.9499 20.3347 28.9816 20.2981 29.014C20.1249 28.7572 19.9009 28.5388 19.6398 28.3722C19.3787 28.2057 19.0862 28.0945 18.7803 28.0457C18.4745 27.9969 18.1619 28.0115 17.862 28.0885C17.562 28.1655 17.2811 28.3033 17.0366 28.4934C16.9976 28.5236 16.9602 28.5554 16.9236 28.5878C16.7505 28.331 16.5264 28.1126 16.2653 27.946C16.0043 27.7794 15.7117 27.6683 15.4059 27.6195C15.1001 27.5706 14.7875 27.5852 14.4876 27.6622C14.1876 27.7392 13.9067 27.877 13.6622 28.0671C13.6232 28.0974 13.5858 28.1291 13.5492 28.1615C13.2555 27.7262 12.8194 27.4067 12.3159 27.2578C11.8123 27.1089 11.2726 27.1398 10.7894 27.3454L10.8995 26.4644L23.2811 28.0284L23.1711 28.9085C22.7745 28.6051 22.2885 28.4417 21.7892 28.4437C21.2898 28.4457 20.8052 28.6131 20.411 28.9196H20.411ZM15.9066 8.67615L15.5355 11.6448L14.7234 11.5422L15.0944 8.57467C15.1011 8.52134 15.1182 8.46984 15.1447 8.42312C15.1713 8.37639 15.2068 8.33536 15.2492 8.30236C15.3349 8.23572 15.4435 8.20584 15.5512 8.21929C15.6046 8.22596 15.6561 8.24306 15.7028 8.26963C15.7495 8.29619 15.7906 8.3317 15.8236 8.37412C15.8566 8.41655 15.8809 8.46505 15.8951 8.51688C15.9094 8.5687 15.9133 8.62282 15.9066 8.67615V8.67615ZM25.0373 13.979L24.4001 19.0764L23.5877 18.9738L23.965 15.9553C24.0153 15.5516 23.9033 15.1445 23.6535 14.8234C23.4037 14.5024 23.0366 14.2937 22.633 14.2432C22.2293 14.1928 21.8222 14.3047 21.501 14.5544C21.1799 14.804 20.971 15.1711 20.9204 15.5747L20.5436 18.5893L19.7317 18.4867L20.1086 15.4678C20.1584 15.0645 20.0464 14.6579 19.797 14.337C19.5477 14.0161 19.1814 13.807 18.7783 13.7556C18.7762 13.7553 18.7741 13.7551 18.7719 13.7549C18.3688 13.7056 17.9626 13.8183 17.6425 14.0681C17.3223 14.3178 17.1142 14.6844 17.0638 15.0874L16.6869 18.1021L15.8751 17.9996L16.2525 14.9807C16.3023 14.5774 16.1903 14.1707 15.941 13.8498C15.6916 13.5289 15.3253 13.3198 14.9222 13.2684C14.9203 13.2682 14.9183 13.2679 14.9163 13.2677C14.5131 13.2182 14.1067 13.3307 13.7863 13.5805C13.4658 13.8302 13.2576 14.1969 13.2071 14.6001L12.8302 17.6149L12.0185 17.5124L12.6557 12.4149L25.0373 13.979ZM19.7638 9.15832L19.3921 12.132L18.58 12.0294L18.9516 9.05676C18.965 8.94905 19.0207 8.85111 19.1064 8.78447C19.1921 8.71783 19.3007 8.68796 19.4084 8.70142C19.5162 8.71489 19.6141 8.77059 19.6807 8.85628C19.7474 8.94196 19.7773 9.05061 19.7638 9.15832ZM23.6209 9.64048L23.2486 12.6191L22.4365 12.5165L22.8087 9.53892C22.8154 9.48559 22.8325 9.4341 22.8591 9.38739C22.8856 9.34067 22.9211 9.29964 22.9636 9.26665C23.006 9.23366 23.0545 9.20934 23.1063 9.1951C23.1581 9.18085 23.2122 9.17695 23.2656 9.18362C23.3189 9.19029 23.3704 9.20739 23.4171 9.23396C23.4638 9.26053 23.5049 9.29604 23.5378 9.33846C23.5708 9.38089 23.5952 9.42939 23.6094 9.48121C23.6237 9.53303 23.6276 9.58715 23.6209 9.64048V9.64048ZM22.8487 15.8157L22.4715 18.8328L21.6598 18.7303L22.0368 15.7142C22.0434 15.6608 22.0604 15.6093 22.087 15.5625C22.1135 15.5158 22.149 15.4747 22.1914 15.4417C22.2338 15.4086 22.2824 15.3843 22.3342 15.37C22.386 15.3557 22.4402 15.3518 22.4935 15.3585C22.5469 15.3651 22.5984 15.3823 22.6451 15.4089C22.6919 15.4355 22.7329 15.471 22.7659 15.5135C22.7989 15.5559 22.8232 15.6045 22.8374 15.6563C22.8516 15.7082 22.8554 15.7623 22.8487 15.8157H22.8487ZM18.9923 15.3284L18.6155 18.3457L17.8031 18.2431L18.1802 15.2269C18.1868 15.1735 18.204 15.122 18.2306 15.0753C18.2572 15.0286 18.2927 14.9876 18.3352 14.9546C18.3776 14.9216 18.4262 14.8973 18.478 14.8831C18.5299 14.8689 18.584 14.8651 18.6374 14.8718L18.6408 14.8722C18.7476 14.8867 18.8444 14.9428 18.9102 15.0281C18.976 15.1135 19.0055 15.2214 18.9923 15.3284H18.9923ZM15.1361 14.8412L14.7589 17.8586L13.9464 17.7559L14.3235 14.7396C14.3301 14.6863 14.3473 14.6348 14.3738 14.588C14.4004 14.5413 14.436 14.5003 14.4784 14.4673C14.5209 14.4343 14.5695 14.41 14.6213 14.3958C14.6732 14.3816 14.7273 14.3778 14.7807 14.3845L14.7845 14.3849C14.8914 14.3994 14.9882 14.4554 15.054 14.5408C15.1199 14.6263 15.1494 14.7342 15.1361 14.8412H15.1361ZM24.2606 20.1927L23.63 25.2377L22.8177 25.1351L23.1882 22.1687C23.2387 21.7649 23.1266 21.3577 22.8768 21.0365C22.7531 20.8775 22.5993 20.7444 22.4242 20.6448C22.249 20.5453 22.056 20.4811 21.8561 20.4562C21.6561 20.4312 21.4533 20.4459 21.259 20.4993C21.0648 20.5527 20.8829 20.6439 20.7239 20.7676C20.4028 21.0174 20.194 21.3846 20.1436 21.7883L19.7736 24.7506L18.9612 24.6479L19.3321 21.6816C19.3826 21.2778 19.2705 20.8704 19.0207 20.5492C18.7708 20.228 18.4036 20.0192 17.9998 19.9687C17.596 19.9183 17.1887 20.0303 16.8674 20.2801C16.5462 20.53 16.3374 20.8972 16.287 21.301L15.917 24.2634L15.1045 24.1608L15.4755 21.1943C15.5005 20.9944 15.4858 20.7915 15.4324 20.5972C15.379 20.4029 15.2878 20.221 15.1641 20.062C15.0404 19.9029 14.8865 19.7698 14.7114 19.6702C14.5362 19.5706 14.3431 19.5065 14.1432 19.4815C13.9432 19.4565 13.7403 19.4711 13.546 19.5246C13.3517 19.578 13.1699 19.6692 13.0108 19.7929C12.8518 19.9166 12.7187 20.0704 12.6191 20.2456C12.5195 20.4208 12.4553 20.6138 12.4303 20.8138L12.0603 23.7762L11.2483 23.6737L11.8789 18.6287L24.2606 20.1927ZM22.0719 22.0292L21.7015 24.9941L20.8897 24.8916L21.2599 21.9278C21.2734 21.8201 21.329 21.7222 21.4147 21.6556C21.5003 21.589 21.6089 21.5591 21.7166 21.5725C21.8243 21.586 21.9222 21.6416 21.9888 21.7273C22.0554 21.8129 22.0853 21.9215 22.0719 22.0292H22.0719ZM18.2157 21.542L17.845 24.507L17.0331 24.4044L17.4033 21.4404C17.4169 21.3328 17.4727 21.2349 17.5583 21.1684C17.644 21.1018 17.7526 21.072 17.8603 21.0855C17.9679 21.099 18.0658 21.1546 18.1325 21.2402C18.1991 21.3258 18.2291 21.4344 18.2157 21.542ZM14.3591 21.0548L13.9884 24.0198L13.1764 23.9172L13.5467 20.9532C13.5603 20.8455 13.616 20.7477 13.7017 20.6811C13.7874 20.6146 13.896 20.5848 14.0037 20.5982C14.1113 20.6117 14.2092 20.6674 14.2759 20.753C14.3425 20.8386 14.3725 20.9471 14.3591 21.0548ZM23.4904 26.354L23.4207 26.9122L11.039 25.3481L11.1088 24.7899L23.4904 26.354ZM16.2384 2.31548L24.1221 3.30096L23.7337 6.40768L23.0501 6.32223L23.1864 5.23173C23.2104 5.04022 23.1964 4.84585 23.1453 4.65973C23.0941 4.47361 23.0068 4.29939 22.8883 4.14702C22.7699 3.99465 22.6225 3.86711 22.4547 3.77169C22.287 3.67627 22.102 3.61484 21.9105 3.5909C21.719 3.56696 21.5246 3.58099 21.3385 3.63219C21.1524 3.68338 20.9782 3.77073 20.8259 3.88926C20.6735 4.00779 20.546 4.15516 20.4507 4.32297C20.3553 4.49078 20.2939 4.67573 20.27 4.86726L20.1337 5.95767L19.4501 5.87222L19.5864 4.78177C19.6108 4.59004 19.5972 4.39537 19.5463 4.20892C19.4954 4.02246 19.4082 3.84787 19.2897 3.69516C19.1712 3.54245 19.0238 3.41461 18.8558 3.31896C18.6879 3.22331 18.5027 3.16174 18.3109 3.13777C18.1191 3.11379 17.9245 3.12789 17.7382 3.17925C17.5518 3.23061 17.3775 3.31823 17.225 3.43708C17.0726 3.55593 16.9451 3.70368 16.8499 3.87187C16.7547 4.04006 16.6935 4.22539 16.67 4.41724L16.5337 5.50768L15.8501 5.42223L16.2384 2.31548ZM22.07 5.09221L21.9337 6.18267L21.2501 6.09722L21.3864 5.00672C21.3977 4.91607 21.4446 4.83363 21.5167 4.77754C21.5889 4.72146 21.6803 4.69632 21.771 4.70765C21.8616 4.71899 21.944 4.76587 22.0001 4.83799C22.0562 4.91011 22.0814 5.00155 22.07 5.09221H22.07ZM18.47 4.64225L18.3337 5.73268L17.6501 5.64722L17.7864 4.55676C17.792 4.51187 17.8064 4.46853 17.8288 4.42921C17.8511 4.38989 17.881 4.35535 17.9167 4.32758C17.9524 4.29981 17.9933 4.27935 18.0369 4.26735C18.0805 4.25536 18.1261 4.25208 18.1709 4.25769C18.2158 4.26331 18.2592 4.27771 18.2985 4.30007C18.3378 4.32243 18.3724 4.35232 18.4001 4.38803C18.4279 4.42374 18.4484 4.46457 18.4604 4.50819C18.4723 4.55181 18.4756 4.59736 18.47 4.64225H18.47ZM13.4259 6.25298L25.8096 7.80096L25.1769 12.8627L24.3648 12.7601L24.7372 9.78007C24.7623 9.58011 24.7477 9.37716 24.6944 9.18283C24.641 8.9885 24.5498 8.80659 24.4261 8.64748C24.3024 8.48838 24.1486 8.35521 23.9734 8.25557C23.7983 8.15593 23.6052 8.09178 23.4052 8.06677C23.2052 8.04177 23.0023 8.05641 22.808 8.10986C22.6137 8.1633 22.4318 8.25451 22.2727 8.37826C22.1137 8.50201 21.9805 8.65589 21.881 8.8311C21.7814 9.00631 21.7173 9.19942 21.6924 9.3994L21.3203 12.3755L20.5082 12.273L20.8801 9.29784C20.9052 9.09788 20.8906 8.89494 20.8372 8.70062C20.7838 8.50629 20.6927 8.32439 20.569 8.1653C20.4453 8.00621 20.2914 7.87305 20.1163 7.77342C19.9411 7.67379 19.748 7.60964 19.548 7.58465C19.3481 7.55965 19.1451 7.5743 18.9508 7.62774C18.7565 7.68119 18.5746 7.77239 18.4156 7.89613C18.2565 8.01988 18.1234 8.17375 18.0238 8.34895C17.9242 8.52416 17.8601 8.71726 17.8352 8.91723L17.4638 11.8884L16.6517 11.7858L17.023 8.81574C17.048 8.61581 17.0333 8.41291 16.9799 8.21863C16.9265 8.02435 16.8353 7.8425 16.7116 7.68345C16.5879 7.5244 16.4341 7.39128 16.259 7.29167C16.0838 7.19207 15.8908 7.12794 15.6908 7.10294C15.4909 7.07795 15.288 7.09258 15.0937 7.14599C14.8995 7.19941 14.7176 7.29057 14.5586 7.41427C14.2373 7.66409 14.0285 8.03129 13.978 8.43507L13.6073 11.4013L12.7952 11.2987L13.4259 6.25298ZM10.5467 29.287H10.5467C10.5845 28.9878 10.7396 28.716 10.9778 28.531C11.2159 28.3461 11.5177 28.2632 11.8169 28.3006C12.1162 28.338 12.3883 28.4926 12.5736 28.7305C12.7589 28.9684 12.8422 29.2701 12.8053 29.5693L12.8054 29.5694C12.8052 29.5708 12.805 29.5723 12.8048 29.5737L12.2827 33.75H9.98877L10.5467 29.287ZM20.272 33.75L20.6701 30.5656C20.6886 30.4173 20.7362 30.2741 20.81 30.1441C20.8839 30.0142 20.9827 29.9001 21.1007 29.8084C21.2186 29.7166 21.3535 29.649 21.4976 29.6094C21.6418 29.5697 21.7923 29.5589 21.9406 29.5774C22.0889 29.596 22.2321 29.6436 22.362 29.7174C22.4919 29.7913 22.606 29.8901 22.6977 30.008C22.7895 30.126 22.8571 30.2609 22.8967 30.405C22.9364 30.5491 22.9472 30.6996 22.9287 30.8479L22.5659 33.75H20.272Z" fill="#0A2B86"/>
<path d="M11.1031 29.5027L11.7244 29.0063L12.2208 29.6276L11.5995 30.124L11.1031 29.5027Z" fill="#0A2B86"/>
<path d="M14.4565 29.8782L15.0778 29.3818L15.5742 30.0031L14.9529 30.4995L14.4565 29.8782Z" fill="#0A2B86"/>
<path d="M17.8102 30.2529L18.4315 29.7565L18.9279 30.3778L18.3066 30.8742L17.8102 30.2529Z" fill="#0A2B86"/>
<path d="M21.1635 30.6289L21.7848 30.1325L22.2812 30.7538L21.6599 31.2502L21.1635 30.6289Z" fill="#0A2B86"/>
</svg>
