<svg width="36" height="36" viewBox="0 0 36 36" fill="none" xmlns="http://www.w3.org/2000/svg">
<path d="M34.3125 9H33.1875V8.4375C33.1875 8.28832 33.1282 8.14524 33.0227 8.03975C32.9173 7.93427 32.7742 7.875 32.625 7.875H31.5C31.3508 7.875 31.2077 7.93427 31.1022 8.03976L30.142 9H21.9375V5.0625C21.9375 4.01821 21.5227 3.01669 20.7842 2.27827C20.0458 1.53984 19.0443 1.125 18 1.125C16.9557 1.125 15.9542 1.53984 15.2158 2.27827C14.4773 3.01669 14.0625 4.01821 14.0625 5.0625V9H5.85802L4.89777 8.03976C4.79228 7.93427 4.64919 7.875 4.5 7.875H3.375C3.22582 7.875 3.08274 7.93427 2.97725 8.03975C2.87177 8.14524 2.8125 8.28832 2.8125 8.4375V9H1.6875C1.53832 9 1.39524 9.05927 1.28975 9.16475C1.18427 9.27024 1.125 9.41332 1.125 9.5625V11.8125C1.125 11.9617 1.18427 12.1048 1.28975 12.2102C1.39524 12.3157 1.53832 12.375 1.6875 12.375H6.71946L7.96049 14.3606C8.01105 14.4415 8.08137 14.5083 8.16481 14.5545C8.24826 14.6007 8.3421 14.625 8.4375 14.625H13.5V20.7888L12.3769 34.2658C12.3705 34.3433 12.3802 34.4213 12.4054 34.4949C12.4307 34.5685 12.4709 34.6361 12.5236 34.6934C12.5763 34.7506 12.6402 34.7963 12.7115 34.8276C12.7827 34.8588 12.8597 34.875 12.9375 34.875H23.0625C23.1403 34.875 23.2173 34.8588 23.2885 34.8276C23.3598 34.7963 23.4237 34.7506 23.4764 34.6934C23.5291 34.6361 23.5693 34.5685 23.5946 34.4949C23.6198 34.4213 23.6295 34.3433 23.6231 34.2658L22.8656 25.1766C22.9273 25.1239 22.9768 25.0585 23.0108 24.9849C23.0448 24.9112 23.0624 24.8311 23.0625 24.75V14.625H27.5625C27.6579 14.625 27.7517 14.6007 27.8352 14.5545C27.9186 14.5083 27.9889 14.4415 28.0395 14.3606L29.2805 12.375H34.3125C34.4617 12.375 34.6048 12.3157 34.7102 12.2102C34.8157 12.1048 34.875 11.9617 34.875 11.8125V9.5625C34.875 9.41332 34.8157 9.27024 34.7102 9.16475C34.6048 9.05927 34.4617 9 34.3125 9ZM21.9375 23.392L21.0455 22.5L21.9375 21.608V23.392ZM14.625 20.3829V14.0625H15.2034C15.3348 16.5361 16.38 18.8728 18.1365 20.6195L18.7273 21.2103L19.5227 20.4147L18.932 19.824C17.3872 18.2878 16.4613 16.2372 16.3305 14.0625H16.895C16.9849 15.3513 17.395 16.5972 18.088 17.6875L19.037 17.0835C18.4593 16.1736 18.1117 15.1368 18.0242 14.0625H19.6875V21.7635L14.625 20.3829ZM20.8125 19.358L21.7045 20.25L20.8125 21.142V19.358ZM20.8125 17.767V10.125H21.9375V18.892L20.8125 17.767ZM20.8125 5.0625V9H19.5642L19.1854 7.48508L20.0853 6.58524C20.1907 6.47975 20.25 6.33668 20.25 6.1875V4.5C20.2497 4.20174 20.131 3.91579 19.9201 3.70488C19.7092 3.49398 19.4233 3.37534 19.125 3.375C18.9759 3.37483 18.8329 3.31551 18.7274 3.21006C18.622 3.10461 18.5627 2.96163 18.5625 2.8125V2.3066C19.1973 2.43709 19.7677 2.78245 20.1776 3.28446C20.5874 3.78647 20.8117 4.41443 20.8125 5.0625ZM19.125 4.5V5.95452L18.3295 6.75H17.6705L16.875 5.95452V4.5C17.2903 4.50035 17.6911 4.34691 18 4.06927C18.3089 4.34691 18.7097 4.50035 19.125 4.5ZM17.8767 7.875H18.1233L18.4046 9H17.5954L17.8767 7.875ZM15.1875 5.0625C15.1883 4.41443 15.4126 3.78647 15.8224 3.28446C16.2323 2.78245 16.8027 2.43709 17.4375 2.3066V2.8125C17.4373 2.96163 17.378 3.10461 17.2726 3.21006C17.1671 3.31551 17.0241 3.37483 16.875 3.375C16.5767 3.37534 16.2908 3.49398 16.0799 3.70488C15.869 3.91579 15.7503 4.20174 15.75 4.5V6.1875C15.75 6.33668 15.8093 6.47975 15.9147 6.58524L16.8146 7.48508L16.4358 9H15.1875V5.0625ZM12.7045 10.125L14.7897 12.2102C14.8952 12.3157 15.0383 12.375 15.1875 12.375H16.875V11.25H15.4205L14.2955 10.125H19.6875V12.9375H13.7587L11.348 10.125H12.7045ZM2.25 11.25V10.125H3.375C3.52418 10.125 3.66726 10.0657 3.77275 9.96025C3.87823 9.85476 3.9375 9.71168 3.9375 9.5625V9H4.26702L5.18191 9.91493L6.01634 11.25H2.25ZM6.63986 10.125H9.86627L12.7591 13.5H11.006L9.48237 10.9606L8.51763 11.5394L9.69398 13.5H8.74924L6.63986 10.125ZM13.5488 33.75L14.5669 21.5331L15.4509 21.7742L15.0046 32.0381L16.1285 32.0869L16.5637 22.0777L17.4375 22.316V32.0625H18.5625V22.6228L19.4708 22.8705L19.8715 32.0869L20.9954 32.0381L20.6319 23.6774L21.7008 24.7463L22.4512 33.75H13.5488ZM27.2508 13.5H23.0625V10.125H25.875L25.5374 10.575C25.3798 10.7841 25.1759 10.9539 24.9417 11.071C24.7075 11.1881 24.4494 11.2494 24.1875 11.25V12.375C24.6239 12.374 25.0542 12.2719 25.4446 12.0767C25.8349 11.8815 26.1748 11.5986 26.4375 11.25L27.2813 10.125H29.3601L27.2508 13.5ZM33.75 11.25H29.9837L30.8181 9.91493L31.733 9H32.0625V9.5625C32.0625 9.71168 32.1218 9.85476 32.2273 9.96025C32.3327 10.0657 32.4758 10.125 32.625 10.125H33.75V11.25Z" fill="#ECD636"/>
</svg>
