<svg width="36" height="36" viewBox="0 0 36 36" fill="none" xmlns="http://www.w3.org/2000/svg">
<path d="M6.1875 19.6875H7.3125V20.8125H6.1875V19.6875Z" fill="#0A2B86"/>
<path d="M7.875 19.6875H9V20.8125H7.875V19.6875Z" fill="#0A2B86"/>
<path d="M9.5625 19.6875H10.6875V20.8125H9.5625V19.6875Z" fill="#0A2B86"/>
<path d="M6.1875 21.9375H7.3125V23.0625H6.1875V21.9375Z" fill="#0A2B86"/>
<path d="M7.875 21.9375H9V23.0625H7.875V21.9375Z" fill="#0A2B86"/>
<path d="M9.5625 21.9375H10.6875V23.0625H9.5625V21.9375Z" fill="#0A2B86"/>
<path d="M6.1875 17.4375H7.3125V18.5625H6.1875V17.4375Z" fill="#0A2B86"/>
<path d="M7.875 17.4375H9V18.5625H7.875V17.4375Z" fill="#0A2B86"/>
<path d="M9.5625 17.4375H10.6875V18.5625H9.5625V17.4375Z" fill="#0A2B86"/>
<path d="M25.3125 19.6875H26.4375V20.8125H25.3125V19.6875Z" fill="#0A2B86"/>
<path d="M27 19.6875H28.125V20.8125H27V19.6875Z" fill="#0A2B86"/>
<path d="M28.6875 19.6875H29.8125V20.8125H28.6875V19.6875Z" fill="#0A2B86"/>
<path d="M25.3125 21.9375H26.4375V23.0625H25.3125V21.9375Z" fill="#0A2B86"/>
<path d="M27 21.9375H28.125V23.0625H27V21.9375Z" fill="#0A2B86"/>
<path d="M28.6875 21.9375H29.8125V23.0625H28.6875V21.9375Z" fill="#0A2B86"/>
<path d="M25.3125 17.4375H26.4375V18.5625H25.3125V17.4375Z" fill="#0A2B86"/>
<path d="M27 17.4375H28.125V18.5625H27V17.4375Z" fill="#0A2B86"/>
<path d="M28.6875 17.4375H29.8125V18.5625H28.6875V17.4375Z" fill="#0A2B86"/>
<path d="M34.875 15.1875C33.9017 15.1855 32.9549 14.8699 32.175 14.2875L31.5 13.7813V11.25C31.4998 11.204 31.494 11.1583 31.4827 11.1137L31.4832 11.1136L30.3582 6.61356C30.3278 6.49187 30.2575 6.38383 30.1587 6.30663C30.0598 6.22943 29.9379 6.1875 29.8125 6.1875C29.6871 6.1875 29.5652 6.22943 29.4663 6.30663C29.3675 6.38383 29.2972 6.49187 29.2668 6.61356L29.1357 7.13784L28.1001 3.77209C28.0647 3.65711 27.9934 3.5565 27.8967 3.48503C27.7999 3.41357 27.6828 3.375 27.5625 3.375C27.4422 3.375 27.3251 3.41357 27.2283 3.48503C27.1316 3.5565 27.0603 3.65711 27.0249 3.77209L25.9893 7.13784L25.8582 6.61356C25.8278 6.49187 25.7575 6.38383 25.6587 6.30663C25.5598 6.22943 25.4379 6.1875 25.3125 6.1875C25.1871 6.1875 25.0652 6.22943 24.9663 6.30663C24.8675 6.38383 24.7972 6.49187 24.7668 6.61356L23.6418 11.1136L23.6423 11.1137C23.631 11.1583 23.6252 11.204 23.625 11.25V11.8125H19.6875V11.25C19.6875 11.1761 19.673 11.103 19.6447 11.0347C19.6164 10.9665 19.575 10.9045 19.5228 10.8522C19.4705 10.8 19.4085 10.7586 19.3403 10.7303C19.272 10.702 19.1989 10.6875 19.125 10.6875H16.875C16.8011 10.6875 16.728 10.702 16.6597 10.7303C16.5915 10.7586 16.5295 10.8 16.4772 10.8522C16.425 10.9045 16.3836 10.9665 16.3553 11.0347C16.327 11.103 16.3125 11.1761 16.3125 11.25V11.8125H12.375V11.25C12.3748 11.204 12.369 11.1583 12.3577 11.1137L12.3582 11.1136L11.2332 6.61356C11.2028 6.49187 11.1325 6.38383 11.0337 6.30663C10.9348 6.22943 10.8129 6.1875 10.6875 6.1875C10.5621 6.1875 10.4402 6.22943 10.3413 6.30663C10.2425 6.38383 10.1722 6.49187 10.1418 6.61356L10.0107 7.13784L8.97511 3.77209C8.93974 3.65711 8.86844 3.5565 8.77168 3.48503C8.67492 3.41357 8.55779 3.375 8.4375 3.375C8.31721 3.375 8.20008 3.41357 8.10332 3.48503C8.00656 3.5565 7.93526 3.65711 7.89989 3.77209L6.86428 7.13784L6.73321 6.61356C6.70278 6.49187 6.63255 6.38383 6.53367 6.30663C6.43479 6.22943 6.31295 6.1875 6.1875 6.1875C6.06205 6.1875 5.94021 6.22943 5.84133 6.30663C5.74245 6.38383 5.67222 6.49187 5.64179 6.61356L4.51679 11.1136L4.51732 11.1137C4.506 11.1583 4.50018 11.204 4.5 11.25V13.7813L3.82503 14.2875C3.04513 14.8699 2.09834 15.1855 1.125 15.1875V16.3125C1.91079 16.3111 2.68765 16.1459 3.40604 15.8275L3.16135 16.2557C2.95581 16.6144 2.65933 16.9125 2.3018 17.12C1.94428 17.3275 1.53836 17.437 1.125 17.4375V18.5625C1.73664 18.5617 2.33726 18.3997 2.86627 18.0927C3.39528 17.7857 3.83398 17.3446 4.1381 16.8139L4.5 16.1806V25.875H1.125V27H3.375V28.125H1.125V29.25H3.375V30.375H4.5V27H12.375V29.8125H13.5V26.7079L15.7083 24.9412L16.1261 25.3591L14.181 27.86L15.069 28.5507L17.319 25.6578C17.4032 25.5496 17.4449 25.4144 17.4364 25.2776C17.4279 25.1407 17.3697 25.0117 17.2727 24.9148L16.1477 23.7898C16.0499 23.6919 15.9193 23.6335 15.7811 23.6259C15.6429 23.6182 15.5067 23.6618 15.3986 23.7483L12.7402 25.875H12.375V14.625H23.625V25.875H23.2598L20.6014 23.7483C20.4933 23.6618 20.3571 23.6182 20.2189 23.6259C20.0807 23.6335 19.9501 23.6919 19.8523 23.7898L18.7273 24.9148C18.6303 25.0117 18.5721 25.1407 18.5636 25.2776C18.5551 25.4144 18.5968 25.5496 18.681 25.6578L20.8685 28.4703L21.7565 27.7797L19.8739 25.3591L20.2917 24.9412L22.5 26.7079V29.8125H23.625V27H31.5V30.375H32.625V29.25H34.875V28.125H32.625V27H34.875V25.875H31.5V16.1806L31.8619 16.8139C32.166 17.3446 32.6047 17.7857 33.1337 18.0927C33.6627 18.3997 34.2634 18.5617 34.875 18.5625V17.4375C34.4616 17.437 34.0557 17.3275 33.6982 17.12C33.3407 16.9125 33.0442 16.6144 32.8386 16.2557L32.594 15.8276C33.3124 16.1459 34.0892 16.3111 34.875 16.3125V15.1875ZM30.375 23.625H24.75V14.625H25.875V16.3125C25.875 16.3864 25.8895 16.4595 25.9178 16.5278C25.9461 16.596 25.9875 16.658 26.0397 16.7103C26.092 16.7625 26.154 16.8039 26.2222 16.8322C26.2905 16.8605 26.3636 16.875 26.4375 16.875H28.6875C28.7614 16.875 28.8345 16.8605 28.9028 16.8322C28.971 16.8039 29.033 16.7625 29.0853 16.7103C29.1375 16.658 29.1789 16.596 29.2072 16.5278C29.2355 16.4595 29.25 16.3864 29.25 16.3125V14.625H30.375V23.625ZM29.25 11.8125H30.375V13.5H29.25V11.8125ZM27 14.625H28.125V15.75H27V14.625ZM28.125 13.5H27V10.358L27.5625 9.79548L28.125 10.358V13.5ZM25.875 13.5H24.75V11.8125H25.875V13.5ZM30.2171 10.6875H29.4079L29.8125 9.06925L30.2171 10.6875ZM27.5625 5.85022L28.6081 9.24842L28.6077 9.24976L27.9602 8.60226C27.8548 8.49678 27.7117 8.43752 27.5625 8.43752C27.4133 8.43752 27.2702 8.49678 27.1648 8.60226L26.5173 9.24976L26.5169 9.24842L27.5625 5.85022ZM25.7171 10.6875H24.9079L25.3125 9.06925L25.7171 10.6875ZM23.625 12.9375V13.5H19.6875V12.9375H23.625ZM18.5625 11.8125V13.5H17.4375V11.8125H18.5625ZM16.3125 12.9375V13.5H12.375V12.9375H16.3125ZM10.125 11.8125H11.25V13.5H10.125V11.8125ZM7.875 14.625H9V15.75H7.875V14.625ZM9 13.5H7.875V10.358L8.4375 9.79548L9 10.358V13.5ZM6.75 13.5H5.625V11.8125H6.75V13.5ZM6.75 14.625V16.3125C6.75 16.3864 6.76455 16.4595 6.79281 16.5278C6.82108 16.596 6.86251 16.658 6.91475 16.7103C6.96698 16.7625 7.02899 16.8039 7.09724 16.8322C7.16548 16.8605 7.23863 16.875 7.3125 16.875H9.5625C9.63637 16.875 9.70952 16.8605 9.77776 16.8322C9.84601 16.8039 9.90802 16.7625 9.96025 16.7103C10.0125 16.658 10.0539 16.596 10.0822 16.5278C10.1105 16.4595 10.125 16.3864 10.125 16.3125V14.625H11.25V23.625H5.625V14.625H6.75ZM11.0921 10.6875H10.2829L10.6875 9.06925L11.0921 10.6875ZM8.4375 5.85022L9.48308 9.24842L9.48274 9.24976L8.83524 8.60226C8.72975 8.49678 8.58668 8.43752 8.4375 8.43752C8.28832 8.43752 8.14525 8.49678 8.03976 8.60226L7.39226 9.24976L7.39192 9.24842L8.4375 5.85022ZM6.59206 10.6875H5.78294L6.1875 9.06925L6.59206 10.6875ZM5.625 25.875V24.75H11.25V25.875H5.625ZM24.75 25.875V24.75H30.375V25.875H24.75Z" fill="#0A2B86"/>
<path d="M31.4996 31.5C30.8261 31.5 30.5162 31.2935 30.124 31.0319C29.6849 30.7393 29.1384 30.375 28.1243 30.375C27.1102 30.375 26.5638 30.7393 26.1248 31.032C25.7326 31.2935 25.4228 31.5 24.7493 31.5C24.0759 31.5 23.7661 31.2935 23.3739 31.032C22.9348 30.7393 22.3884 30.375 21.3743 30.375C20.3603 30.375 19.8139 30.7393 19.3749 31.032C18.9827 31.2935 18.6729 31.5 17.9995 31.5C17.3261 31.5 17.0163 31.2935 16.6241 31.032C16.1851 30.7393 15.6387 30.375 14.6247 30.375C13.6106 30.375 13.0642 30.7393 12.6252 31.032C12.2329 31.2935 11.9231 31.5 11.2497 31.5C10.5763 31.5 10.2665 31.2935 9.87434 31.032C9.4353 30.7393 8.8889 30.375 7.87486 30.375C6.86079 30.375 6.31439 30.7393 5.87535 31.032C5.4831 31.2935 5.17332 31.5 4.4999 31.5C3.8265 31.5 3.51672 31.2935 3.12448 31.032C2.68544 30.7393 2.13904 30.375 1.125 30.375V31.5C1.79843 31.5 2.10821 31.7065 2.50045 31.968C2.93949 32.2607 3.48586 32.625 4.4999 32.625C5.51394 32.625 6.06033 32.2607 6.49937 31.968C6.89162 31.7065 7.20144 31.5 7.87486 31.5C8.54826 31.5 8.85807 31.7065 9.25028 31.968C9.68929 32.2607 10.2357 32.625 11.2497 32.625C12.2638 32.625 12.8102 32.2607 13.2492 31.968C13.6414 31.7065 13.9513 31.5 14.6247 31.5C15.2981 31.5 15.6079 31.7065 16 31.968C16.4391 32.2607 16.9855 32.625 17.9995 32.625C19.0135 32.625 19.5599 32.2607 19.9989 31.968C20.3912 31.7065 20.701 31.5 21.3743 31.5C22.0478 31.5 22.3576 31.7065 22.7498 31.968C23.1889 32.2607 23.7353 32.625 24.7493 32.625C25.7634 32.625 26.3098 32.2607 26.7488 31.968C27.1411 31.7065 27.4509 31.5 28.1243 31.5C28.7978 31.5 29.1077 31.7065 29.4999 31.9681C29.939 32.2607 30.4855 32.625 31.4996 32.625C32.5138 32.625 33.0602 32.2607 33.4993 31.9681C33.8916 31.7065 34.2015 31.5 34.875 31.5V30.375C33.8609 30.375 33.3144 30.7393 32.8754 31.0319C32.483 31.2935 32.1732 31.5 31.4996 31.5Z" fill="#0A2B86"/>
</svg>
