<svg width="12" height="13" viewBox="0 0 12 13" fill="none" xmlns="http://www.w3.org/2000/svg">
<path d="M6.71484 10.583H3.77051V13H2.0918V10.583H0.272461V9.19434H2.0918V7.99023H0.272461V6.61035H2.0918V0.203125H6.81152C8.18262 0.203125 9.26953 0.551758 10.0723 1.24902C10.875 1.94629 11.2764 2.88965 11.2764 4.0791C11.2764 5.32715 10.8896 6.29102 10.1162 6.9707C9.34863 7.64453 8.25586 7.98438 6.83789 7.99023H3.77051V9.19434H6.71484V10.583ZM3.77051 6.61035H6.81152C7.71973 6.61035 8.41113 6.39648 8.88574 5.96875C9.36035 5.54102 9.59766 4.91699 9.59766 4.09668C9.59766 3.35254 9.35156 2.75195 8.85938 2.29492C8.36719 1.83203 7.70215 1.59766 6.86426 1.5918H3.77051V6.61035Z" fill="#ECD636"/>
</svg>
