<svg width="16" height="16" viewBox="0 0 16 16" fill="none" xmlns="http://www.w3.org/2000/svg">
<g clip-path="url(#clip0_6123_3)">
<path d="M8.95312 13.0252H5.02735V16H2.78907V13.0252H0.363281V11.3161H2.78907V9.83413H0.363281V8.13582H2.78907V0.25H9.08203C10.9102 0.25 12.3594 0.679087 13.4297 1.53726C14.5 2.39543 15.0352 3.55649 15.0352 5.02043C15.0352 6.55649 14.5195 7.74279 13.4883 8.57932C12.4648 9.40865 11.0078 9.82693 9.11719 9.83413H5.02735V11.3161H8.95312V13.0252ZM5.02735 8.13582H9.08203C10.293 8.13582 11.2148 7.87259 11.8477 7.34615C12.4805 6.81972 12.7969 6.05168 12.7969 5.04207C12.7969 4.1262 12.4687 3.38702 11.8125 2.82452C11.1563 2.25481 10.2695 1.96635 9.15235 1.95914H5.02735V8.13582Z" fill="#ECD636"/>
</g>
<defs>
<clipPath id="clip0_6123_3">
<rect width="16" height="16" fill="white"/>
</clipPath>
</defs>
</svg>
